<svg height="590" width="720" xmlns="http://www.w3.org/2000/svg">
<rect height="590" fill="#555" width="720"></rect>
<text fill="#7f7" font-family="Courier New" font-size="12" xml:space="preserve">
<tspan x="10" y="26">14 megabytes installed</tspan>
<tspan x="10" y="42"></tspan>
<tspan x="10" y="58">node_modules</tspan>
<tspan x="10" y="74">└─┬ font-blast@0.6.1 </tspan>
<tspan x="10" y="90">  ├─┬ commander@2.9.0 </tspan>
<tspan x="10" y="106">  │ └── graceful-readlink@1.0.1 </tspan>
<tspan x="10" y="122">  ├── graceful-fs@4.1.11 </tspan>
<tspan x="10" y="138">  ├─┬ mkdirp@0.5.1 </tspan>
<tspan x="10" y="154">  │ └── minimist@0.0.8 </tspan>
<tspan x="10" y="170">  ├─┬ svg2ttf@4.0.2 </tspan>
<tspan x="10" y="186">  │ ├─┬ argparse@1.0.9 </tspan>
<tspan x="10" y="202">  │ │ └── sprintf-js@1.0.3 </tspan>
<tspan x="10" y="218">  │ ├── cubic2quad@1.1.0 </tspan>
<tspan x="10" y="234">  │ ├── lodash@4.17.4 </tspan>
<tspan x="10" y="250">  │ ├── microbuffer@1.0.0 </tspan>
<tspan x="10" y="266">  │ └── svgpath@2.2.1 </tspan>
<tspan x="10" y="282">  ├─┬ svgo@0.7.2 </tspan>
<tspan x="10" y="298">  │ ├─┬ coa@1.0.1 </tspan>
<tspan x="10" y="314">  │ │ └── q@1.5.0 </tspan>
<tspan x="10" y="330">  │ ├── colors@1.1.2 </tspan>
<tspan x="10" y="346">  │ ├─┬ csso@2.3.2 </tspan>
<tspan x="10" y="362">  │ │ ├─┬ clap@1.1.3 </tspan>
<tspan x="10" y="378">  │ │ │ └─┬ chalk@1.1.3 </tspan>
<tspan x="10" y="394">  │ │ │   ├── ansi-styles@2.2.1 </tspan>
<tspan x="10" y="410">  │ │ │   ├── escape-string-regexp@1.0.5 </tspan>
<tspan x="10" y="426">  │ │ │   ├─┬ has-ansi@2.0.0 </tspan>
<tspan x="10" y="442">  │ │ │   │ └── ansi-regex@2.1.1 </tspan>
<tspan x="10" y="458">  │ │ │   ├── strip-ansi@3.0.1 </tspan>
<tspan x="10" y="474">  │ │ │   └── supports-color@2.0.0 </tspan>
<tspan x="10" y="490">  │ │ └── source-map@0.5.6 </tspan>
<tspan x="10" y="506">  │ ├─┬ js-yaml@3.7.0 </tspan>
<tspan x="10" y="522">  │ │ └── esprima@2.7.3 </tspan>
<tspan x="10" y="538">  │ ├── sax@1.2.2 </tspan>
<tspan x="10" y="554">  │ └── whet.extend@0.9.9 </tspan>
<tspan x="10" y="570">  └── xmldom@0.1.27</tspan>
</text>
</svg>
